<?xml version="1.0" encoding="utf-8"?>
<!-- Generator: Adobe Illustrator 19.0.0, SVG Export Plug-In . SVG Version: 6.00 Build 0)  -->
<svg version="1.1"
	 id="svg1936" xmlns:inkscape="http://www.inkscape.org/namespaces/inkscape" xmlns:sodipodi="http://sodipodi.sourceforge.net/DTD/sodipodi-0.dtd" xmlns:svg="http://www.w3.org/2000/svg" xmlns:rdf="http://www.w3.org/1999/02/22-rdf-syntax-ns#" xmlns:dc="http://purl.org/dc/elements/1.1/" xmlns:cc="http://creativecommons.org/ns#" sodipodi:docname="Amazon II.svg" inkscape:version="0.91 r13725"
	 xmlns="http://www.w3.org/2000/svg" xmlns:xlink="http://www.w3.org/1999/xlink" x="0px" y="0px" viewBox="194 246.6 1000 301.4"
	 style="enable-background:new 194 246.6 1000 301.4;" xml:space="preserve">
<style type="text/css">
	.st0{fill:#FF9900;}
	.st1{fill:#FFFFFF;stroke:#FFFFFF;stroke-miterlimit:10;}
</style>
<sodipodi:namedview  id="namedview19" borderopacity="1" showgrid="false" pagecolor="#ffffff" bordercolor="#666666" objecttolerance="10" inkscape:zoom="0.72245926" gridtolerance="10" guidetolerance="10" inkscape:cx="426.12453" inkscape:cy="94.816171" inkscape:current-layer="svg1936" inkscape:window-maximized="1" inkscape:window-y="-8" inkscape:window-x="-8" inkscape:window-width="1366" inkscape:pageshadow="2" inkscape:pageopacity="0" inkscape:window-height="705">
	</sodipodi:namedview>
<path id="path8" inkscape:connector-curvature="0" class="st0" d="M814.4,482.3C756.3,525.1,672,548,599.5,548
	c-101.7,0-193.2-37.6-262.5-100.2c-5.4-4.9-0.6-11.6,6-7.8c74.7,43.5,167.2,69.6,262.6,69.6c64.4,0,135.2-13.3,200.3-41
	C815.8,464.6,824,475.2,814.4,482.3"/>
<path id="path10" inkscape:connector-curvature="0" class="st0" d="M838.5,454.7c-7.4-9.5-49.1-4.5-67.8-2.3
	c-5.7,0.7-6.6-4.3-1.4-7.8c33.2-23.4,87.7-16.6,94.1-8.8c6.4,7.9-1.7,62.5-32.9,88.6c-4.8,4-9.4,1.9-7.2-3.4
	C830.3,503.4,846,464.2,838.5,454.7"/>
<path id="XMLID_11_" class="st1" d="M771.9,279.3v-22.5c0-3.4,2.6-5.7,5.7-5.7h101.7c3.3,0,5.9,2.3,5.9,5.7v19.4
	c0,3.2-2.8,7.4-7.7,14.2l-52.7,74.7c19.5-0.4,40.2,2.4,58.1,12.4c3.9,2.2,5.1,5.5,5.4,8.7v24.1c0,3.3-3.6,7.1-7.5,5.2
	c-31.3-16.3-72.9-18.1-107.5,0.2c-3.6,1.9-7.2-1.9-7.2-5.3v-22.8c0-3.7,0-9.9,3.8-15.5l61-87h-53.2
	C774.6,285,771.9,282.8,771.9,279.3z M400.9,420.2h-31c-3-0.2-5.3-2.4-5.6-5.2V257.2c0-3.1,2.6-5.7,5.9-5.7h28.9
	c3,0.2,5.4,2.4,5.6,5.4v20.6h0.5c7.5-20,21.7-29.3,40.7-29.3c19.4,0,31.5,9.3,40.2,29.3c7.5-20,24.6-29.3,42.8-29.3
	c13,0,27.1,5.4,35.8,17.3c9.8,13.3,7.9,32.6,7.9,49.5v99.6c0,3.2-2.6,5.7-5.9,5.7h-30.9c-3.1-0.2-5.6-2.7-5.6-5.6v-83.7
	c0-6.6,0.5-23.2-0.8-29.6c-2.3-10.6-9.2-13.6-18.2-13.6c-7.5,0-15.3,5-18.5,12.9c-3.1,7.9-3,21.2-3,30.2v83.7c0,3.2-2.6,5.7-5.9,5.7
	h-30.9c-3.1-0.2-5.6-2.7-5.6-5.6v-83.7c0-17.7,3-43.5-19-43.5c-22.3,0-21.3,25.2-21.3,43.5v83.7
	C406.8,417.7,404.2,420.2,400.9,420.2L400.9,420.2z M972.8,248.2c45.9,0,70.7,39.2,70.7,89c0,48.2-27.6,86.4-70.7,86.4
	c-45.1,0-69.6-39.2-69.6-88C903.2,286.3,928,248.2,972.8,248.2z M973.1,280.4c-22.8,0-24.3,30.9-24.3,50.1c0,19.3-0.3,60.5,24,60.5
	c24,0,25.1-33.2,25.1-53.4c0-13.3-0.5-29.3-4.6-41.9C989.9,284.6,983,280.4,973.1,280.4L973.1,280.4z M1103.3,420.2h-30.8
	c-3.1-0.2-5.6-2.7-5.6-5.6V256.6c0.3-2.9,2.8-5.2,5.9-5.2h28.7c2.8,0.2,4.9,2,5.6,4.5v24.2h0.7c8.7-21.6,20.7-31.9,42.2-31.9
	c13.9,0,27.6,5,36.1,18.6c8,12.6,8,33.9,8,49.1v99.3c-0.3,2.9-3,5-5.9,5h-31c-2.8-0.2-5.1-2.3-5.6-5v-85.7
	c0-17.2,2.1-42.5-19.4-42.5c-7.5,0-14.4,5-17.9,12.7c-4.3,9.6-4.9,19.3-4.9,29.9v85C1109.2,417.7,1106.5,420.2,1103.3,420.2z
	 M340.2,391.3c-5.6-7.8-11.7-14.1-11.7-28.4v-48c0-20.2,1.5-38.9-13.6-52.9c-11.8-11.3-31.5-15.3-46.6-15.3
	c-29.5,0-62.4,10.9-69.2,47.1c-0.7,3.8,2.1,5.9,4.6,6.4l30,3.2c2.8-0.2,4.8-2.9,5.4-5.7c2.6-12.5,13.1-18.5,24.9-18.5
	c6.4,0,13.6,2.3,17.4,8c4.3,6.3,3.8,15,3.8,22.3v4c-17.9,2.1-41.4,3.3-58.3,10.7c-19.4,8.3-33,25.2-33,50.2c0,32,20.2,48,46.3,48
	c22,0,34-5.2,51-22.4c5.6,8.1,7.4,12,17.7,20.5c2.3,1.2,5.3,1.2,7.4-0.7v0.1c6.2-5.4,17.4-15.2,23.8-20.4
	C342.7,397.4,342.2,394.1,340.2,391.3L340.2,391.3z M279.3,377.5c-4.9,8.7-12.8,13.9-21.3,13.9c-11.8,0-18.9-9-18.9-22.3
	c0-26.2,23.6-30.9,46.1-30.9v6.6C285.1,356.8,285.4,366.8,279.3,377.5z M746,391.3c-5.7-7.8-11.7-14.1-11.7-28.4v-48
	c0-20.2,1.5-38.9-13.6-52.9c-12-11.3-31.7-15.3-46.8-15.3c-29.4,0-62.4,10.9-69.2,47.1c-0.7,3.8,2.1,5.9,4.6,6.4l30,3.2
	c2.8-0.2,4.9-2.9,5.4-5.7c2.6-12.5,13.1-18.5,24.9-18.5c6.4,0,13.6,2.3,17.4,8c4.3,6.3,3.8,15,3.8,22.3v4
	c-17.9,2.1-41.4,3.3-58.1,10.7c-19.4,8.4-33,25.3-33,50.3c0,32,20.2,48,46.3,48c22,0,34-5.2,51-22.4c5.6,8.1,7.4,12,17.7,20.5
	c2.3,1.2,5.3,1.2,7.2-0.7v0.1c6.2-5.4,17.4-15.2,23.8-20.4C748.3,397.4,748,394.1,746,391.3L746,391.3z M685,377.5
	c-4.9,8.7-12.8,13.9-21.3,13.9c-11.8,0-18.9-9-18.9-22.3c0-26.2,23.6-30.9,45.9-30.9v6.6C690.9,356.8,691,366.8,685,377.5z"/>
</svg>
